<?xml version="1.0" encoding="UTF-8"?>
<svg xmlns="http://www.w3.org/2000/svg" version="1.1" viewBox="0 0 320 66">
  <defs>
    <style>
      .cls-1 {
        fill: none;
        stroke: #8a2be2;
        stroke-miterlimit: 10;
      }

      .cls-2 {
        fill: #8a2be2;
      }

      .cls-3 {
        isolation: isolate;
      }
    </style>
  </defs>
  <!-- Generator: Adobe Illustrator 28.7.1, SVG Export Plug-In . SVG Version: 1.2.0 Build 142)  -->
  <g>
    <g id="Layer_1">
      <g>
        <g class="cls-3">
          <path class="cls-2" d="M5.4,47.5c-1.3,0-2.5-.5-3.6-1.3-1.1-.8-1.7-1.9-1.7-3.3s0-.8.2-1.2c.2-1,.8-1.8,1.8-2.5,1-.7,2-1,3-1,.4-.5,1-.7,1.6-.7s.6,0,.9.2c.3.2.5.4.7.7.2,0,.4,0,.6,0s.6,0,.8-.1c.2,0,.4-.2.4-.4,0-.3.2-.4.4-.4s.3,0,.3.2c0,.3,0,.6,0,1-.1.4-.5.6-1.2.7-.3,0-.6,0-.9-.2,0,.3.1.6.1.8s0,.3,0,.4c0,.1,0,.3,0,.5v.2c0,.3.1.6.3.9.2.3.4.3.7.2.2-.1.3-.2.4-.2s.1,0,0,.3c-.3.5-.8.7-1.3.7s-.4,0-.5-.1c-.5-.2-.8-.5-1.1-.9-.2-.4-.4-.8-.4-1.2,0-.7-.3-1.2-.6-1.5-.3-.3-.7-.5-1-.6,0,0-.1,0-.2,0-.7.2-1.5.5-2.2,1.1-.7.6-1.2,1.3-1.4,2,0,.2,0,.3,0,.5,0,.2,0,.3,0,.5,0,1.2.4,2.1,1.3,2.8.9.7,1.9,1,3.1,1,1.7,0,3.5-.6,5.4-1.8,1.9-1.2,3.8-2.8,5.8-4.9,2-2,4-4.3,5.9-6.8,2-2.5,3.9-5.1,5.7-7.7,1.9-2.7,3.6-5.2,5.2-7.6.9-1.3,1.9-2.8,3.1-4.3,1.2-1.5,2.5-3.1,3.9-4.6-2-.9-4.1-1.5-6.4-1.9-2.3-.4-4.7-.6-7.1-.6s-6.2.4-9.2,1.2c-3,.8-5.7,2-8.1,3.6-2.4,1.6-4.2,3.8-5.5,6.4-.8,1.7-1.3,3.4-1.3,4.9s.4,2.7,1.1,3.9h0c.7.3,1.4.5,2.2.5s.4,0,.5,0c.2,0,.3,0,.5,0-.1-.2-.2-.5-.2-.7,0-.5.2-.8.5-1,.3-.2.5-.3.7-.4.3,0,.5-.2.8-.3.3-.1.5-.3.6-.5.2-.3.3-.6.3-.9,0-.3,0-.5,0-.7.3.3.4.6.5,1,0,.4.1.8.1,1.3,0,1-.2,1.7-.7,2.2-.5.5-1,.7-1.5.7s-.8-.2-1.1-.5c-.4.2-.9.2-1.3.2s-.5,0-.8,0c-.3,0-.6-.1-.9-.1,1.4,1.7,3.5,2.5,6,2.5s2.5-.2,3.7-.6c0,0,0,0,0,0,0,0,0,0,0,0h.2c1.8-.7,3.3-1.7,4.6-3,1.2-1.3,2.2-2.7,2.9-4.3.7-1.6,1-3,1-4.4s-.3-2.5-1-3.4c-.7-.9-1.7-1.4-3.2-1.4h0c-.5,0-1,.3-1.4.9-.4.6-.7,1.5-.7,2.5,0,.5-.2,1.2-.7,2.1-.4.9-1,1.7-1.7,2.2-.6.4-1.1.6-1.5.6s-.8-.1-1.1-.4c0,0-.1-.2-.1-.2s.2-.2.7-.2c.4,0,.8-.4,1-.9.3-.6.4-1.1.3-1.6-.2-1.7.1-3.1.8-4.1.7-1,1.7-1.6,3.1-1.6h.4c.1,0,.3,0,.4,0,.4,0,.8,0,1.1.1.4,0,.7.2.9.2-.2-.2-.4-.4-.7-.7-.2-.3-.3-.6-.3-1.1s.2-.6.5-.8c.3-.2.7-.3,1-.3s.4,0,.5.1c.3.2.5.3.5.4,0,.2-.2.2-.6.1h-.1c-.3,0-.5.2-.5.5s.1.8.3,1.2c.2.5.4.8.6,1h0c.8.5,1.4,1.1,1.8,1.8.4.8.7,1.6.7,2.5.1-.2.2-.4.4-.6.2-.2.3-.4.5-.6-.2-.2-.3-.6-.3-1s.2-.9.5-1.5c.3-.5.9-1,1.5-1.3,1.2-.6,2.7-1,4.6-1s1.2,0,1.8.2c.5.1,1,.3,1.3.6.3.3.4.5.4.6,0,.2,0,.3,0,.3-.2,0-.3,0-.5,0-.2,0-.4,0-.6,0-.5,0-.8,0-1.1.2-.4.2-.7.5-.9.8-.2.3-.4.7-.7,1.2-.3.4-.8.9-1.5,1.3-.6.4-1.3.6-2.2.6s-1.2-.2-1.7-.5c-.8.6-1.2,1.3-1.4,2-.2,1.9-.9,3.8-2.1,5.7-1.3,1.9-3,3.5-5.1,4.7.3,0,.7,0,1.1.3.3-.3.6-.4,1-.4s1,.2,1.4.7c.5.4.7,1.1.7,2.1s0,.8-.2,1.3c-.1.5-.3.9-.6,1.2,0-.2,0-.4,0-.7,0-.3-.1-.6-.3-.9-.1-.2-.3-.4-.5-.5-.2-.1-.5-.2-.8-.3-.2,0-.5-.2-.7-.4-.3-.2-.4-.5-.4-.9s0-.5.2-.7c-.3-.1-.7-.2-1.1-.2h-.3c-.1,0-.2,0-.3,0-1.8.8-3.6,1.1-5.7,1.1s-1.7,0-2.5-.3c-.8-.2-1.6-.4-2.3-.8.3.5.5,1,.5,1.4s-.2.8-.7,1.1c-.5.2-.9.3-1.2.1-.2,0-.2-.1-.2-.2,0-.2.1-.2.4-.3.3-.1.5-.5.5-1s0-.7-.1-1.1c0-.4-.2-.6-.4-.8h0c-1-.9-1.9-1.9-2.5-3.1-.6-1.2-.9-2.5-.9-3.9s.4-3.4,1.3-5.1c.9-1.8,2.2-3.4,3.8-4.8-.2,0-.4,0-.6.1s-.5,0-.7,0c-.5,0-.9,0-1.3-.3-.3-.2-.5-.4-.6-.7-.1-.3-.2-.6-.2-.8,0-.5.1-.9.4-1.3.1-.1.2-.2.3-.2.1,0,.2.2.2.6s.2.6.7.9c.4.2.9.4,1.5.5.6,0,1,.1,1.3,0l.5-.2c2.5-1.7,5.4-2.9,8.8-3.8,3.4-.8,6.9-1.3,10.4-1.3s5.3.2,7.9.7c2.6.5,5,1.1,7.2,2,.9-.9,1.8-1.7,2.7-2.5.9-.8,1.8-1.6,2.7-2.3,1.3-1,2.5-1.6,3.8-2,1.3-.4,2.4-.5,3.5-.5s2,.2,2.7.5c.7.3,1.2.7,1.3,1.1l-.3.2c-.3-.3-.7-.6-1.3-.9s-1.2-.3-2-.3-1.9.2-3.1.6c-1.2.4-2.5,1.2-4,2.2-.6.5-1.3,1.1-2.1,1.9-.7.8-1.5,1.7-2.3,2.7,2.8,1.3,5,3,6.8,5,1.7,2.1,2.6,4.5,2.6,7.2s-.5,3.6-1.4,5.1c-.9,1.5-2.1,2.8-3.7,3.9-1.5,1.1-3.2,2-5,2.5-1.8.6-3.6.9-5.4.9s-1.1,0-1.7,0c-.6,0-1.1-.2-1.7-.3-1-.3-1.9-.6-2.7-1.1-.8-.5-1.5-.9-2-1.4-3.6,5.4-7.4,9.7-11.4,12.7-4,3.1-8.1,4.5-12.3,4.2ZM36.6,32.5c1.6,0,3.1-.2,4.5-.6,2.2-.7,3.9-1.7,5.2-2.9,1.3-1.3,2.3-2.7,2.9-4.1.6-1.5.9-2.8.9-4.1,0-2.4-.7-4.5-2.1-6.3-1.4-1.8-3.3-3.3-5.6-4.5-1.4,1.9-2.8,3.9-4.3,6.2-1.5,2.3-2.8,4.5-4.1,6.6-1.3,2.2-2.5,4.1-3.5,5.7-.2.3-.3.5-.5.8-.2.3-.4.6-.6.8.9.9,2,1.5,3.3,1.9,1.3.4,2.6.6,3.9.6Z"/>
          <path class="cls-2" d="M61.7,43.6c-.8,0-1.4-.3-2-.8-.6-.5-.9-1.3-.9-2.3s0-1,.3-1.7c-.5.6-1.2,1.3-1.9,2.1-.7.7-1.5,1.3-2.3,1.8-.8.5-1.7.7-2.5.7s-.9,0-1.2-.2c-.6-.2-1-.6-1.3-1.1-.2-.5-.4-1.1-.4-1.7,0-1.1.2-2.2.7-3.3.4-1.1.8-2,1.2-2.7,0,0,0,0-.2,0-.2,0-.3,0-.4-.2-.1-.1-.1-.3,0-.4.3-.3.7-.9,1.2-1.7.6-.8,1.2-1.7,1.9-2.6.7-1,1.3-1.9,1.9-2.7.6-.8,1-1.5,1.3-1.9.3,0,.8-.2,1.3-.4.6-.2,1.1-.3,1.6-.3s1,.2,1.3.5c-.4.6-1,1.5-1.8,2.6-.8,1.1-1.6,2.2-2.5,3.5-.9,1.3-1.7,2.6-2.5,3.9-.8,1.3-1.5,2.6-2,3.8-.5,1.2-.8,2.2-.8,3.1s.3,1,1,1c.8,0,1.7-.5,2.8-1.5,1.1-1,2.2-2.2,3.4-3.7,1.2-1.5,2.3-3,3.3-4.6,1.7-2.6,3.5-5.3,5.4-8.2.3,0,.7-.1,1.3-.3.6-.2,1.1-.3,1.6-.3s.9.2,1.1.5c-.3.4-.8,1.2-1.6,2.3-.8,1.1-1.7,2.5-2.7,3.9-1,1.5-2,3-2.9,4.5-.3.5-.6,1.1-1,1.7-.4.7-.7,1.3-1,1.8-.3.6-.6,1.1-.7,1.5,0,.4-.1.7-.1.9,0,.8.4,1.1,1.1,1.1s.9-.2,1.5-.5c.6-.3,1.2-.8,1.7-1.3.7-.7,1.5-1.5,2.2-2.5.7-1,1.6-2.4,2.6-4.1,0-.2.2-.2.5-.2s.3,0,.3.2c0,.1,0,.3,0,.4-.7,1.2-1.4,2.3-2.1,3.4-.7,1.1-1.5,2.1-2.4,3.2-.9,1-1.8,1.7-2.8,2.1s-1.9.7-2.7.7Z"/>
          <path class="cls-2" d="M76.2,43.5c-.8,0-1.4-.2-2-.7-.6-.5-.9-1.1-.9-1.9s.3-2,.8-3.1c.5-1.1,1.1-2.1,1.7-3,.6-.9,1-1.5,1.2-1.7.7-.9,1.3-1.9,1.9-2.8.6-1,.9-1.8.9-2.4s-.2-.9-.7-1.1c-.4-.2-.9-.3-1.3-.5-.5-.2-.8-.3-1-.3-.1.2-.4.6-.8,1.3-.4.7-.9,1.5-1.5,2.4-.6.9-1.1,1.8-1.6,2.6-.5.8-.9,1.5-1.1,1.9-.2.3-.4.4-.6.4s-.3,0-.3-.2c0-.2,0-.3,0-.5,1.1-1.8,2.2-3.5,3-5,.9-1.6,1.4-2.6,1.7-3-.4-.3-.7-.7-.9-1.4-.2-.6-.3-1.3-.3-2s.2-1.4.5-2.1c.3-.6.8-.9,1.5-.9s.8.2,1,.7c.2.5.3,1,.3,1.6s0,1-.2,1.5c-.1.5-.2.8-.3,1l-.4.9c.5,0,1.1.1,2.1.2.9.1,1.9.2,2.9.4.6,0,1,.3,1.4.6.4.3.5.8.5,1.4s-.2,1.3-.6,2.1c-.4.8-1,1.7-1.9,2.7-.5.5-1,1.2-1.7,2.1-.6.9-1.3,1.7-1.8,2.5-.6.8-1,1.5-1.3,1.9-.5.8-.7,1.5-.7,2.2s.4,1.1,1.2,1.1,1.8-.3,2.8-1c1-.7,2-1.5,2.9-2.5,1-1,1.8-2,2.5-2.9.7-1,1.3-1.7,1.6-2.3.2-.3.4-.4.6-.4s.3,0,.3.3,0,.3-.1.5c-.4.6-1,1.4-1.9,2.6-.9,1.1-1.9,2.3-3.1,3.5-1.2,1.2-2.5,2.1-3.9,2.7-.5.2-.9.3-1.4.4-.5,0-.8.1-1.1.1Z"/>
          <path class="cls-2" d="M62.7,65.2c-1.5,0-2.7-.4-3.5-1.2-.8-.8-1.2-1.7-1.2-2.8s.1-1.1.4-1.5c.1-.2.2-.2.4-.2s.4,0,.5.2c.1.1.2.3,0,.4-.1.3-.2.7-.2,1.1,0,.6.3,1.2.8,1.7.5.5,1.3.8,2.2.8s1.7-.3,2.8-.9c1-.6,2.1-1.4,3.3-2.4,1.1-1,2.2-2,3.3-3.1,1-1.1,2-2.1,2.8-3.1.8-1,1.4-1.7,1.9-2.3,1.6-2.1,3-4.1,4.4-6.2s2.6-4,3.7-5.9c1.1-1.9,2.1-3.4,2.8-4.8l.4-.7s0,0-.1,0c0,0,0,0-.2,0-.2,0-.3,0-.4-.1,0,0-.1-.2,0-.2.3-.4.9-1.3,1.7-2.5.8-1.3,1.6-2.6,2.3-4,.3-.6.6-1.3,1-2.3.4-.9.6-1.8.6-2.6s0-.7-.2-1.1c-.1-.4-.3-.6-.6-.7-.3-.2-.5-.3-.5-.5,0-.3.2-.5.7-.5s.8.2,1.1.7c.2.4.4.9.5,1.3,0,.5.1,1,.1,1.5,0,1.4-.3,2.7-.8,4.1-.5,1.4-1,2.5-1.5,3.3.8-.9,1.6-1.8,2.5-2.7.9-.9,1.8-1.6,2.8-2.3,1-.6,2-.9,2.9-.9s1.9.3,2.5,1c.6.7.9,1.6.9,2.7s-.2,2.2-.6,3.3c-.4,1.2-.8,2.1-1.3,2.7-1.3,2-2.7,3.6-4.3,4.8-1.6,1.2-3,2-4.4,2.6-.2,0-.2.2-.2.3s.1.1.4.1c.4,0,1,0,2-.2.9-.1,2-.4,3.3-.9,1.3-.5,2.6-1.3,4-2.5,1.4-1.2,2.8-2.9,4.2-5.1.1-.2.2-.3.3-.3,0,0,.2,0,.2,0,.1,0,.2,0,.3.2,0,.1,0,.3,0,.5-1.6,2.5-3.3,4.5-5,5.9-1.8,1.4-3.6,2.4-5.5,2.9-1.9.5-4,.8-6.2.8s-1.9-.2-2.8-.5c-.9-.3-1.4-1-1.5-1.9-.8,1.5-1.6,3.2-2.6,5.2-1,1.9-2,3.8-3.2,5.8-1.2,1.9-2.5,3.7-4,5.5-1.8,2.1-3.9,3.8-6.2,5.3-2.3,1.5-4.7,2.2-7.1,2.2ZM88.4,42.2c.8,0,1.7-.4,2.8-1.1,1.1-.8,2.2-1.7,3.3-2.9,1.1-1.2,2.1-2.5,3.1-3.8.9-1.4,1.7-2.7,2.3-3.9s.9-2.3.9-3.1-.4-1.4-1.1-1.4-1.3.2-2.2.7c-.9.5-1.7,1.2-2.6,2-.9.8-1.7,1.7-2.5,2.7-.8,1-1.5,1.9-2,2.8-.1.2-.4.8-.9,1.6-.5.9-.9,1.8-1.4,2.8-.4,1-.7,1.9-.7,2.6s.4,1.1,1.2,1.1Z"/>
          <path class="cls-2" d="M109.1,43.5c-.2,0-.3,0-.5,0-.2,0-.4,0-.6,0-1.1-.3-1.9-.8-2.4-1.5-.5-.7-.7-1.6-.7-2.7s.1-1.7.4-2.7c.2-1,.6-2,.9-3.1.6-1.7,1.5-3.5,2.4-5.6,1-2,2.1-4.1,3.3-6.3,1.2-2.2,2.6-4.2,3.9-6.3,1.4-2,2.8-3.9,4.3-5.5.9-1,1.8-1.9,2.7-2.7.9-.8,1.8-1.4,2.7-1.9,1.5-.9,2.9-1.4,4.1-1.4s1.4.2,1.8.5c.4.4.7.9.7,1.7s-.1,1.1-.3,1.7c-.2.6-.6,1.3-1.1,2.1-1,1.6-2.2,3.3-3.7,5-1.5,1.8-3.1,3.5-4.9,5.1-1.8,1.7-3.5,3.2-5.3,4.6-1.8,1.4-3.4,2.5-5,3.4-.8,1.4-1.5,2.8-2.2,4.4-.7,1.5-1.2,3-1.7,4.4-.4,1.4-.6,2.6-.6,3.6s.2,1.4.5,1.8c.3.5.8.7,1.4.7s1.8-.4,2.9-1.1c1.1-.8,2.3-1.8,3.5-3.1s2.3-2.9,3.4-4.6c.2-.2.4-.3.6-.3s.2,0,.3.2c0,.2,0,.3,0,.5-1.9,2.9-3.7,5.1-5.5,6.8s-3.6,2.5-5.4,2.5ZM112.3,26.8c1.2-.7,2.6-1.7,4.3-3.1,1.6-1.4,3.3-3,5-4.7,1.7-1.7,3.2-3.5,4.7-5.2,1.4-1.7,2.5-3.2,3.3-4.5.4-.7.7-1.3.9-1.8.2-.5.3-.9.3-1.3,0-.7-.3-1-.9-1s-1.9.6-3.2,1.7c-1,.8-1.9,1.7-2.7,2.7-.8,1-1.4,1.7-1.8,2.1-1.8,2.3-3.5,4.9-5.1,7.6-1.6,2.7-3.2,5.3-4.8,7.6Z"/>
          <path class="cls-2" d="M123,43.5c-1,0-1.9-.2-2.8-.7-.9-.5-1.5-1.2-1.9-2.3-.3-.7-.4-1.5-.4-2.3s.2-2.1.6-3.1c.5-1.3,1.3-2.5,2.3-3.7,1-1.2,2.2-2.3,3.4-3.3,1.3-1,2.5-1.8,3.8-2.4,1.3-.6,2.4-.9,3.4-.9s1.5.2,2,.7c.3.3.5.8.5,1.5s-.3,1.8-.9,2.9c-.6,1.1-1.5,2-2.7,2.8-.7.5-1.6.9-2.5,1.2-1,.3-2,.5-3.1.5s-.7,0-1.1,0c-.4,0-.7,0-1.1-.2-.3.3-.6.8-.9,1.5-.4.7-.7,1.4-.9,2.2-.2.8-.4,1.6-.4,2.3,0,1,.3,1.7.8,2.1.5.4,1.1.6,1.9.6,1.4,0,2.9-.5,4.2-1.4,1.4-.9,2.6-2.1,3.7-3.5,1.1-1.4,2-2.7,2.8-3.9.1-.2.2-.2.3-.3,0,0,.1,0,.2,0,.1,0,.2,0,.3.2,0,.1.1.3,0,.5-.5.8-1.1,1.8-1.9,2.9-.8,1.1-1.7,2.2-2.7,3.2-1,1-2.2,1.8-3.5,2.5-.5.3-1,.5-1.6.6-.6.1-1.2.2-1.7.2ZM124.2,33.5c1.8,0,3.4-.5,4.9-1.4,1.5-.9,2.5-2.1,3.2-3.4.2-.3.3-.6.4-.9,0-.3,0-.5,0-.6,0-.6-.4-1-1.1-1s-1,.1-1.5.3c-.6.2-1,.5-1.5.8-.7.5-1.5,1.2-2.3,2s-1.5,1.5-2.1,2.3-1.1,1.3-1.4,1.7c.2,0,.4,0,.6,0,.2,0,.4,0,.6,0Z"/>
          <path class="cls-2" d="M147.4,54.6c-1.3,0-2.4-.5-3.5-1.3-1.1-.8-1.7-1.9-1.7-3.3s0-.4,0-.6c0-.2,0-.4,0-.6.2-1,.8-1.8,1.9-2.5,1-.7,2-1,3.1-1,.4-.6,1-1,1.7-1s1.2.3,1.6,1c.3,0,.6.1.7.1s.5,0,.7-.1c.2,0,.3-.2.4-.4,0-.3.2-.4.4-.4s.3,0,.3.2c0,.3,0,.6,0,1-.1.4-.5.6-1.2.7-.2,0-.5,0-.9-.2,0,.2,0,.3,0,.4v.9c0,.1,0,.3,0,.4v.2c0,.3.1.6.3.9.2.2.4.3.7.1.2,0,.3-.1.4-.1s.1,0,0,.3c-.3.5-.8.7-1.3.7s-1.1-.3-1.4-.8c-.3-.5-.5-1-.6-1.4,0-.7-.3-1.2-.6-1.5-.3-.3-.7-.5-1-.6h0c-.8,0-1.5.3-2.3.9-.8.7-1.3,1.4-1.5,2.3,0,.2,0,.3,0,.5,0,.2,0,.4,0,.5,0,1.2.4,2.1,1.3,2.7.9.6,1.9,1,3.1,1s3.1-.5,4.8-1.5c1.7-1,3.4-2.3,5.2-4.1,1.8-1.7,3.6-3.6,5.3-5.7-.6-.3-1.2-.8-1.8-1.4-.6-.5-1.2-1.1-1.7-1.7-.5-.6-1-1.1-1.4-1.7h0c-.6-.5-1.1-.8-1.5-1-.4-.2-.9-.3-1.3-.2,0,.1.1.2.1.4v.4c0,.6-.2,1.2-.7,1.7-.4.5-1,.7-1.7.7s-.5,0-.8,0c-.2,0-.5,0-.7,0-1.3,0-2.2.3-2.9.8s-1.1.9-1.4,1.2c0-.1,0-.2,0-.3v-.3c0-.9.3-1.7.8-2.6.6-.9,1-1.5,1.3-1.8s.8-.6,1.5-.9c.8-.3,1.5-.5,2.2-.5s1.4.2,1.8.7c.5,0,.9,0,1.3,0,.4,0,.8.2,1.2.4-.5-1-.8-2.1-1-3.1-.2-1-.2-2-.2-3-2.4-.2-4.4-1.1-6-2.7s-2.4-3.6-2.4-6,0-1.6.3-2.4c.2-.8.5-1.7.9-2.6.5-1,1.1-2,1.8-2.8.7-.8,1.4-1.6,2.2-2.3-.5.2-1,.3-1.5.3s-.4,0-.6,0c-.2,0-.4-.1-.6-.2-.3-.2-.5-.4-.6-.7-.1-.3-.2-.6-.2-.8,0-.5.1-.9.4-1.3.1-.1.2-.2.3-.2.1,0,.2.2.2.6s.2.6.7.9c.4.2.9.4,1.5.5.6,0,1,.1,1.3,0,.3-.2.5-.2.6-.2,2-1.4,4.2-2.4,6.6-3.1,2.4-.7,4.9-1.2,7.4-1.4,2.5-.2,4.8-.4,7-.4,3.6,0,6.7.3,9.3,1,2.6.7,4.6,1.6,6.1,2.7,1-.5,2-.9,2.9-1.1.9-.2,1.8-.3,2.6-.3s2,.2,2.7.5c.7.3,1.2.7,1.3,1.1l-.3.2c-.3-.3-.7-.6-1.3-.9-.6-.2-1.2-.3-2-.3s-1.5.1-2.3.3-1.8.6-2.8,1.2c1,.8,1.7,1.8,2.2,2.7.5,1,.7,2,.7,3s-.4,2.8-1.3,4.1c-.9,1.3-2.1,2.4-3.8,3.4-1.6,1-3.6,1.6-6,1.9,2.6.5,4.5,1.5,5.8,3.1,1.3,1.6,1.9,3.3,1.9,5.2s-.4,2.9-1.1,4.4c-.7,1.5-1.8,2.8-3.3,4-1.5,1.2-3.3,2.2-5.5,2.9-2.2.7-4.7,1.1-7.6,1.1h-.7c-.2,0-.5,0-.7,0-1.2,0-2.2.4-3,1,.2.3.2.6.2.8,0,.4-.1.7-.3,1.1-.2.3-.5.5-.9.5-1.1,0-2,.4-2.4,1-.5.6-.8,1.1-.8,1.4-.2-.3-.3-.8-.3-1.3s0-1,.3-1.5c.2-.5.3-.9.5-1.1.2-.3.4-.6.9-1,.4-.4.9-.6,1.5-.6s.7.1,1,.4h0c.2-.2.5-.4.7-.5.2-.1.5-.2.8-.3-1.5-.3-3-.8-4.4-1.4-2.9,3.4-6,6.1-9.1,7.9-3.1,1.9-6.4,2.7-9.6,2.5ZM156.4,29.6c.4-2,1.3-3.6,2.8-5,1.5-1.3,3.3-2,5.6-2s2.5.2,3.8.7c.6-.8,1-1.7,1.3-2.6.3-.9.4-1.7.4-2.6,0-1.5-.4-2.8-1.1-3.9-.8-1.1-1.8-1.8-3.1-1.9,0,0-.2.2-.5.4-.4.3-.9.6-1.4,1.1-.5.4-.8,1.2-.9,2.3,0,.5-.3,1.2-.7,2.2-.4,1-1,1.7-1.7,2.2-.5.3-1,.5-1.5.5s-.8-.1-1.1-.4c-.1-.1-.2-.2-.2-.2,0,0,0-.1.2-.1s.3,0,.5,0c.4,0,.8-.4,1.1-.9.3-.6.4-1.1.3-1.6-.1-1.7.2-3.1,1.1-4.2.8-1.1,1.8-1.6,3-1.7,1,0,2,0,2.9.3-.2-.2-.4-.4-.6-.7-.2-.3-.3-.6-.3-1s.2-.6.5-.8c.3-.2.7-.3,1-.3s.4,0,.5.1c.3.2.4.3.4.4s-.2.1-.7.1-.4.2-.4.6,0,.7.3,1.2c.2.5.4.8.6,1,.8.5,1.5,1.1,1.9,1.9.4.8.7,1.7.8,2.7.2-.3.3-.5.5-.7.2-.2.4-.5.6-.7-.2-.2-.3-.6-.3-1s.2-.9.5-1.5c.3-.5.9-1,1.5-1.3,1.2-.6,2.7-1,4.6-1s1.2,0,1.8.2c.5.1,1,.3,1.3.6.3.3.4.5.4.6,0,.2,0,.3,0,.3-.2,0-.3,0-.5,0-.2,0-.4,0-.6,0-.5,0-.8,0-1.1.2-.4.2-.7.5-.9.8-.2.3-.4.7-.7,1.2-.3.4-.8.9-1.5,1.3-.6.4-1.3.6-2.2.6s-1.2-.2-1.7-.5c-.6.5-1,.9-1.2,1.4-.2.5-.4,1-.4,1.6,0,.2-.1.2-.2.3-.2,1.4-.7,2.7-1.5,4l1.1.5c1.4.7,2.7,1.7,3.9,3l1.4-2.1c1-1.5,2.2-3.1,3.6-4.9,1.4-1.8,2.9-3.5,4.6-5.2,1.7-1.7,3.4-3.2,5.2-4.5h.1c-1.3-1.2-3.1-2.1-5.4-2.8-2.3-.7-5.1-1.1-8.4-1.1s-4.6.2-7,.5c-2.4.3-4.7.9-6.9,1.7-2.2.8-4.2,2-6,3.4-1.8,1.5-3.2,3.3-4.3,5.6-.8,1.7-1.3,3.4-1.3,4.9s.6,3.5,1.8,4.8c1.2,1.3,2.7,2,4.5,2.2ZM163.7,41.8c1.8-2.2,3.6-4.5,5.3-6.9,1.7-2.4,3.4-4.8,4.9-7.1-1.1-1.3-2.5-2.3-3.9-3-.4-.2-.7-.3-1.1-.5-.2.2-.3.4-.5.6-.2.2-.4.4-.5.6-.7.7-1.4,1.3-2.1,1.8-.7.5-1.4.9-2.1,1.3.5,0,1,.1,1.5.3.3-.3.6-.4,1-.4s1,.2,1.4.7c.5.4.7,1.1.7,2.1s0,.8-.2,1.3c-.1.5-.3.9-.6,1.2,0-.2,0-.4,0-.7,0-.3-.1-.6-.3-.9-.1-.2-.3-.4-.5-.5-.2-.1-.5-.2-.8-.3-.2,0-.5-.2-.7-.4-.3-.2-.4-.5-.4-.9s0-.5.2-.7c-.4-.1-.8-.2-1.3-.2s-.9,0-1.4.2c-1.1.5-2.2.8-3.4.9-.1.4-.2.8-.2,1.2,0,.4,0,.8,0,1.2,0,1.4.3,2.7.9,4.1.6,1.4,1.6,2.7,2.9,3.9.2.2.5.4.7.6.2.2.5.4.7.6ZM158.9,29.5c1.3-.2,2.6-.7,4-1.4,1.4-.7,2.8-1.8,4.2-3.1.2-.2.3-.3.4-.4.1-.1.3-.3.4-.4-.3,0-.6-.1-.9-.2-.3,0-.6,0-.9,0-1.7,0-3.2.5-4.5,1.6-1.3,1.1-2.2,2.4-2.7,4ZM173.6,45c2.4,0,4.6-.4,6.5-1.1,1.9-.7,3.4-1.7,4.7-2.9,1.3-1.2,2.2-2.6,2.8-4,.6-1.4.9-2.9.9-4.3s-.6-3.6-1.8-5c-1.2-1.4-3-2.2-5.5-2.3h-1.7c-.1,0-.2,0-.3,0-.1,0-.2,0-.4,0-.4.7-.9,1.4-1.3,2.1-.5.7-.9,1.4-1.3,2.1.7,1.3,1.1,2.6,1.3,4,0,0,0,0,0,0,.5.3,1,.5,1.8.5s.6,0,.9-.1c.3,0,.4-.3.5-.5.1-.3.3-.5.5-.5s.2,0,.3.3c0,.2.1.4.1.5,0,.3-.1.6-.3,1-.2.3-.6.5-1.3.5s-.9-.2-1.4-.5c-.5-.3-.8-.6-.9-.7h0c0,0,0,.7,0,.7,0,1.4-.4,2.7-1.3,3.9-.8,1.2-1.9,1.8-3.1,1.9v-.3c1.2-.3,2.1-1,2.7-2.1.6-1.1.8-2.2.8-3.4s-.3-2.9-1-4.3c-.5.9-1.1,1.8-1.6,2.6-.5.8-1,1.6-1.5,2.3-1,1.5-1.9,3-2.9,4.3-1,1.3-2,2.6-2.9,3.8,2.3,1,4.6,1.5,6.9,1.5ZM179.2,24.7c2.9-.2,5.3-.7,7.2-1.6,1.9-.9,3.4-2,4.3-3.3,1-1.3,1.5-2.7,1.5-4.1s-.7-3.3-2.1-4.8l-.3.2c-1,.7-2.1,1.8-3.3,3.2-1.2,1.4-2.4,3-3.6,4.8-1.2,1.8-2.4,3.6-3.7,5.5Z"/>
          <path class="cls-2" d="M204.9,43.6c-.8,0-1.4-.3-2-.8-.6-.5-.9-1.3-.9-2.3s0-1,.3-1.7c-.5.6-1.2,1.3-1.9,2.1-.7.7-1.5,1.3-2.3,1.8s-1.7.7-2.5.7-.9,0-1.2-.2c-.6-.2-1-.6-1.3-1.1s-.4-1.1-.4-1.7c0-1.1.2-2.2.7-3.3.4-1.1.8-2,1.2-2.7,0,0,0,0-.2,0-.2,0-.3,0-.4-.2-.1-.1-.1-.3,0-.4.3-.3.7-.9,1.2-1.7.6-.8,1.2-1.7,1.9-2.6.7-1,1.3-1.9,1.9-2.7.6-.8,1-1.5,1.3-1.9.3,0,.8-.2,1.3-.4.6-.2,1.1-.3,1.6-.3s1,.2,1.3.5c-.4.6-1,1.5-1.8,2.6-.8,1.1-1.6,2.2-2.5,3.5-.9,1.3-1.7,2.6-2.5,3.9-.8,1.3-1.5,2.6-2,3.8-.5,1.2-.8,2.2-.8,3.1s.3,1,1,1c.8,0,1.7-.5,2.8-1.5,1.1-1,2.2-2.2,3.4-3.7,1.2-1.5,2.3-3,3.3-4.6,1.7-2.6,3.5-5.3,5.4-8.2.3,0,.7-.1,1.3-.3.6-.2,1.1-.3,1.6-.3s.9.2,1.1.5c-.3.4-.8,1.2-1.6,2.3-.8,1.1-1.7,2.5-2.7,3.9-1,1.5-2,3-2.9,4.5-.3.5-.6,1.1-1,1.7-.4.7-.7,1.3-1,1.8-.3.6-.6,1.1-.7,1.5,0,.4-.1.7-.1.9,0,.8.4,1.1,1.1,1.1s.9-.2,1.5-.5c.6-.3,1.2-.8,1.7-1.3.7-.7,1.5-1.5,2.2-2.5.7-1,1.6-2.4,2.6-4.1,0-.2.2-.2.5-.2s.3,0,.3.2c0,.1,0,.3,0,.4-.7,1.2-1.4,2.3-2.1,3.4s-1.5,2.1-2.4,3.2c-.9,1-1.8,1.7-2.8,2.1s-1.9.7-2.7.7Z"/>
          <path class="cls-2" d="M216.2,43.4c-1.1,0-2.1-.3-2.9-.9-.9-.6-1.3-1.6-1.3-2.8s0-1.2.1-1.7c0-.5.3-1.1.5-1.7.3-.6.7-1.3,1.3-2.3.6-.9,1.4-2.1,2.4-3.5l4.2-5.9h-3.1l.5-.9h3.3l4.6-6.6c.8-.6,1.8-.9,3-.9s1.1,0,1.7.3l-5.4,7.2h4.1l-.5.9h-4.2l-4.8,6.6c-.2.3-.6.8-1.1,1.6-.5.7-1.1,1.6-1.7,2.5-.6,1-1.1,1.9-1.5,2.8-.4.9-.6,1.8-.6,2.5,0,1.3.6,1.9,1.8,1.9s1.4-.2,2.2-.6c1.8-.8,3.3-1.9,4.5-3.3,1.2-1.4,2.4-3,3.6-4.8.1-.2.3-.2.5-.2s.2,0,.3.2c0,.1,0,.2,0,.4-.7,1.1-1.5,2.2-2.3,3.3-.8,1.1-1.8,2.2-2.8,3.1-1,1-2.2,1.7-3.5,2.2-.8.3-1.8.5-2.7.5Z"/>
          <path class="cls-2" d="M228.9,43.4c-1.1,0-2.1-.3-2.9-.9-.9-.6-1.3-1.6-1.3-2.8s0-1.2.1-1.7c0-.5.3-1.1.5-1.7.3-.6.7-1.3,1.3-2.3.6-.9,1.4-2.1,2.4-3.5l4.2-5.9h-3.1l.5-.9h3.3l4.6-6.6c.8-.6,1.8-.9,3-.9s1.1,0,1.7.3l-5.4,7.2h4.1l-.5.9h-4.2l-4.8,6.6c-.2.3-.6.8-1.1,1.6-.5.7-1.1,1.6-1.7,2.5-.6,1-1.1,1.9-1.5,2.8-.4.9-.6,1.8-.6,2.5,0,1.3.6,1.9,1.8,1.9s1.4-.2,2.2-.6c1.8-.8,3.3-1.9,4.5-3.3,1.2-1.4,2.4-3,3.6-4.8.1-.2.3-.2.5-.2s.2,0,.3.2c0,.1,0,.2,0,.4-.7,1.1-1.5,2.2-2.3,3.3-.8,1.1-1.8,2.2-2.8,3.1-1,1-2.2,1.7-3.5,2.2-.8.3-1.8.5-2.7.5Z"/>
          <path class="cls-2" d="M243.5,43.5c-1,0-1.9-.2-2.8-.7s-1.5-1.2-1.9-2.3c-.3-.7-.4-1.5-.4-2.3s.2-2.1.6-3.1c.5-1.3,1.3-2.5,2.3-3.7,1-1.2,2.2-2.3,3.4-3.3,1.3-1,2.5-1.8,3.8-2.4,1.3-.6,2.4-.9,3.4-.9s1.5.2,2,.7c.3.3.5.8.5,1.5s-.3,1.8-.9,2.9c-.6,1.1-1.5,2-2.7,2.8-.7.5-1.6.9-2.5,1.2-1,.3-2,.5-3.1.5s-.7,0-1.1,0c-.4,0-.7,0-1.1-.2-.3.3-.6.8-.9,1.5-.4.7-.7,1.4-.9,2.2s-.4,1.6-.4,2.3c0,1,.3,1.7.8,2.1.5.4,1.1.6,1.9.6,1.4,0,2.9-.5,4.2-1.4,1.4-.9,2.6-2.1,3.7-3.5,1.1-1.4,2-2.7,2.8-3.9.1-.2.2-.2.3-.3,0,0,.1,0,.2,0,.1,0,.2,0,.3.2,0,.1.1.3,0,.5-.5.8-1.1,1.8-1.9,2.9-.8,1.1-1.7,2.2-2.7,3.2-1,1-2.2,1.8-3.5,2.5-.5.3-1,.5-1.6.6-.6.1-1.2.2-1.7.2ZM244.7,33.5c1.8,0,3.4-.5,4.9-1.4,1.5-.9,2.5-2.1,3.2-3.4.2-.3.3-.6.4-.9,0-.3,0-.5,0-.6,0-.6-.4-1-1.1-1s-1,.1-1.5.3c-.6.2-1,.5-1.5.8-.7.5-1.5,1.2-2.3,2-.8.8-1.5,1.5-2.1,2.3s-1.1,1.3-1.4,1.7c.2,0,.4,0,.6,0,.2,0,.4,0,.6,0Z"/>
          <path class="cls-2" d="M259.5,43.5c-.8,0-1.4-.2-2-.7-.6-.5-.9-1.1-.9-1.9s.3-2,.8-3.1c.5-1.1,1.1-2.1,1.7-3,.6-.9,1-1.5,1.2-1.7.7-.9,1.3-1.9,1.9-2.8.6-1,.9-1.8.9-2.4s-.2-.9-.7-1.1c-.4-.2-.9-.3-1.3-.5-.5-.2-.8-.3-1-.3-.1.2-.4.6-.8,1.3-.4.7-.9,1.5-1.5,2.4-.6.9-1.1,1.8-1.6,2.6-.5.8-.9,1.5-1.1,1.9-.2.3-.4.4-.6.4s-.3,0-.3-.2c0-.2,0-.3,0-.5,1.1-1.8,2.2-3.5,3-5,.9-1.6,1.5-2.6,1.7-3-.4-.3-.7-.7-.9-1.4-.2-.6-.3-1.3-.3-2s.2-1.4.5-2.1c.3-.6.8-.9,1.5-.9s.8.2,1,.7c.2.5.3,1,.3,1.6s0,1-.2,1.5c-.1.5-.2.8-.3,1l-.4.9c.5,0,1.1.1,2.1.2.9.1,1.9.2,2.9.4.6,0,1,.3,1.4.6.4.3.5.8.5,1.4s-.2,1.3-.6,2.1c-.4.8-1,1.7-1.9,2.7-.5.5-1,1.2-1.7,2.1-.6.9-1.3,1.7-1.8,2.5-.6.8-1,1.5-1.3,1.9-.5.8-.7,1.5-.7,2.2s.4,1.1,1.2,1.1,1.8-.3,2.8-1c1-.7,2-1.5,2.9-2.5,1-1,1.8-2,2.5-2.9.7-1,1.3-1.7,1.6-2.3.2-.3.4-.4.6-.4s.3,0,.3.3,0,.3-.1.5c-.4.6-1,1.4-1.9,2.6-.9,1.1-1.9,2.3-3.1,3.5-1.2,1.2-2.5,2.1-3.9,2.7-.5.2-.9.3-1.4.4-.5,0-.8.1-1.1.1Z"/>
          <path class="cls-2" d="M268.7,60.5c-.2,0-.3,0-.4,0-1.1-.2-1.9-.7-2.5-1.5-.6-.8-.9-1.7-1.1-2.8-.2-1-.3-2.1-.3-3,0-2.1.3-4.5.8-7s1.2-5,2-7.5c.8-2.5,1.6-4.7,2.3-6.7.7-1.8,1.5-3.8,2.5-5.9,1-2.1,2.1-4.3,3.3-6.4,1.2-2.1,2.5-4.1,3.9-5.9,1.4-1.8,3-3.3,4.6-4.5.6-.5,1.4-.9,2.1-1.3.8-.3,1.6-.5,2.4-.5s1.5.2,1.9.6c.5.4.7,1,.7,1.9,0,1.4-.5,3-1.5,4.8-1,1.8-2.2,3.6-3.7,5.5-1.5,1.9-3.2,3.8-4.9,5.6-1.7,1.8-3.4,3.5-5,5-1.6,1.5-2.9,2.7-3.9,3.7h0c-.5,1.4-1.1,3-1.8,4.8-.6,1.9-1.3,3.8-1.8,5.8-.6,2-1,4-1.4,5.9s-.6,3.5-.6,5,0,1,.1,1.7c0,.6.3,1.2.6,1.7.3.5.8.7,1.5.7s1.7-.3,2.3-1c.7-.7,1.3-1.5,1.8-2.5.5-1,.9-2,1.3-3,.3-1,.6-1.8.7-2.4.1-.5.2-1.1.3-1.7,0-.6.1-1.1.1-1.7,0-1-.1-2-.4-2.9-.3-1-.7-1.9-1.3-2.7-.5,0-1-.2-1.7-.3-.7-.2-1.1-.6-1.1-1.1s.3-.7.8-.7.9.2,1.3.6c.5.4.8.8,1,1.2h.5c1.4,0,2.8-.3,4-.9,1.2-.7,2.3-1.5,3.2-2.6.9-1.1,1.7-2.2,2.4-3.3.2-1.5.6-3.1,1.1-4.8.5-1.7,1-3.3,1.7-5,.7-1.6,1.4-3.1,2.1-4.4.4-.7.9-1.6,1.6-2.7.7-1.1,1.5-2.2,2.3-3.5.9-1.2,1.8-2.4,2.8-3.4,1-1.1,2-1.9,3-2.6,1-.7,2-1,2.9-1s1.3.4,1.3,1.2-.2,1.6-.5,2.5c-.3,1-.6,1.8-.9,2.4-1,2.4-2.2,4.8-3.7,7.2-1.5,2.4-3.2,4.7-5,6.8-1.8,2.2-3.7,4.1-5.6,5.9-.3.9-.5,1.9-.7,2.8s-.3,2-.3,2.9.2,1.6.5,2.5c.3.8,1,1.3,2,1.3s1.8-.4,2.6-1.1c.9-.7,1.7-1.6,2.5-2.6.8-1,1.5-2.1,2.1-3.1.6-1,1-1.9,1.3-2.5h.1c0,0,.3,0,.3,0h0c-.4.9-.9,1.9-1.5,2.9-.6,1.1-1.3,2.1-2.1,3.2-.8,1-1.6,1.9-2.6,2.6-.9.7-1.9,1-2.9,1s-2.1-.3-2.7-.9c-.6-.6-1.1-1.4-1.4-2.3-.3-.9-.4-1.9-.4-2.9v-.8c0-.3,0-.5,0-.8-1.1,1.7-2.4,3.2-4,4.5-1.6,1.3-3.5,1.9-5.6,1.8.5.8.9,1.8,1.2,2.9.2,1.1.4,2.2.4,3.1s0,1,0,1.5c0,.5-.1.9-.2,1.4-.3,1.5-.8,3.1-1.5,4.8-.7,1.7-1.7,3-3,3.9-.3.2-.6.4-1,.6-.4.2-.8.3-1.2.3ZM272.6,33.4c1-.9,2.2-2.1,3.7-3.5,1.5-1.5,3.1-3.1,4.7-4.9,1.6-1.8,3.2-3.6,4.6-5.4,1.4-1.9,2.6-3.6,3.5-5.3.9-1.7,1.4-3.2,1.4-4.4s-.6-1.8-1.7-1.8-2.1.5-3.2,1.5c-1.1,1-2.2,2.3-3.3,3.9-1.1,1.6-2.2,3.4-3.2,5.3-1,1.9-1.9,3.8-2.8,5.8-.9,1.9-1.6,3.7-2.2,5.2-.6,1.6-1.1,2.8-1.5,3.7ZM287.2,32.9c1-.8,1.9-1.7,2.7-2.7.8-1,1.6-2,2.4-2.9.5-.6,1.2-1.6,2-2.7.8-1.2,1.7-2.5,2.6-3.9.9-1.4,1.8-2.9,2.6-4.4.8-1.5,1.5-2.9,2-4.1.5-1.3.8-2.3.8-3.1s0-.4-.1-.7c0-.2-.3-.3-.5-.3-.5,0-1.1.4-1.8,1.2-.7.8-1.5,1.7-2.3,2.8-.8,1.1-1.5,2.1-2.1,3.1s-1.1,1.7-1.3,2c-.5.8-1,1.7-1.4,2.5-.4.8-.8,1.6-1.2,2.5-.8,1.8-1.6,3.5-2.3,5.4-.7,1.8-1.4,3.7-1.9,5.6Z"/>
          <path class="cls-2" d="M288.7,65.2c-1.1,0-1.9-.3-2.6-.8-.7-.6-1-1.3-1-2.3s0-1,.3-1.5c.2-.6.5-1.1.9-1.7.8-1.1,1.9-2.3,3.3-3.6,1.5-1.3,3-2.6,4.6-3.7,1.8-1.3,3.4-2.5,5.1-3.5,1.6-1,3-1.8,4.1-2.4,1.1-.6,1.8-.9,2-1,0,0,.3-.6.7-1.8.4-1.2,1-2.6,1.7-4.4.7-1.8,1.5-3.5,2.4-5.3-.4.6-.9,1.3-1.4,2.1-.5.8-1,1.5-1.5,2.1-.5.6-.9,1.1-1.2,1.5-.5.6-1.2,1.3-1.9,2.1-.7.7-1.5,1.3-2.3,1.8-.8.5-1.7.7-2.5.7s-1.6-.3-2.1-.8c-.5-.5-.7-1.3-.7-2.2s.2-2.2.7-3.3c.4-1.1.8-2,1.2-2.7,0,0,0,0-.2,0-.2,0-.3,0-.4-.2-.1-.2-.1-.3,0-.4.3-.5.8-1.1,1.4-1.9.6-.8,1.3-1.6,1.9-2.5.7-.9,1.3-1.8,1.9-2.6.6-.8,1.1-1.5,1.4-2,.3,0,.7-.2,1.2-.3.5-.2,1-.2,1.5-.2s.9.2,1.2.5c-.4.6-1,1.5-1.8,2.6-.8,1.1-1.6,2.2-2.5,3.5s-1.7,2.6-2.5,3.9c-.8,1.3-1.5,2.6-2,3.8-.5,1.2-.8,2.2-.8,3.1s.3,1,1,1c.8,0,1.7-.5,2.8-1.5,1.1-1,2.2-2.2,3.4-3.7,1.2-1.5,2.3-3,3.3-4.6,1.3-2,2.5-3.5,3.4-4.7,1-1.1,1.6-1.9,2-2.3.4-.4.7-.8,1.1-1.2.3-.4.7-.7,1-.9.5-.4,1.1-.6,1.6-.6s.8.1,1.1.3c.3.2.4.4.4.7s-.2.5-.6.7c-1.2.6-2.3,1.3-3.3,2-1,.7-1.9,1.7-2.7,2.7-.8,1.1-1.6,2.5-2.1,4.3-.6,1.7-1.1,3.5-1.5,5.2-.4,1.7-.8,3.1-1.1,4.3.6-.4,1.5-1,2.5-2,1.1-.9,2.2-2.1,3.4-3.4s2.2-2.7,3-4.1c.2-.2.3-.3.5-.3s.2,0,.3.1c0,0,.1.2,0,.3-1.1,1.9-2.3,3.6-3.7,5.1-1.4,1.5-2.7,2.8-3.8,3.7-1.2,1-2,1.5-2.6,1.8-.8,2.3-1.9,4.7-3.2,7.3-1.3,2.6-3,5-5.1,7.3-.9,1-2,2-3.3,2.9-1.3.9-2.7,1.7-4.1,2.3-1.4.6-2.8.9-4.1.9ZM288.4,64.3c.9,0,1.9-.4,3.1-1.3,1.2-.9,2.5-2,3.8-3.4,1.3-1.4,2.6-2.9,3.9-4.6,1.3-1.6,2.4-3.2,3.4-4.8,1-1.6,1.9-2.9,2.5-4.1-.5.3-1.4.7-2.5,1.4-1.1.7-2.4,1.5-3.8,2.4-1.4.9-2.8,2-4.3,3.1-1.4,1.1-2.8,2.2-4,3.3-1.2,1.1-2.2,2.2-3,3.2s-1.1,2-1.1,2.8.2,1.1.5,1.5c.3.4.8.5,1.4.5Z"/>
        </g>
        <path class="cls-1" d="M5.4,47.5c-1.3,0-2.5-.5-3.6-1.3-1.1-.8-1.7-1.9-1.7-3.3s0-.8.2-1.2c.2-1,.8-1.8,1.8-2.5,1-.7,2-1,3-1,.4-.5,1-.7,1.6-.7s.6,0,.9.2c.3.2.5.4.7.7.2,0,.4,0,.6,0s.6,0,.8-.1c.2,0,.4-.2.4-.4,0-.3.2-.4.4-.4s.3,0,.3.2c0,.3,0,.6,0,1-.1.4-.5.6-1.2.7-.3,0-.6,0-.9-.2,0,.3.1.6.1.8s0,.3,0,.4c0,.1,0,.3,0,.5v.2c0,.3.1.6.3.9.2.3.4.3.7.2.2-.1.3-.2.4-.2s.1,0,0,.3c-.3.5-.8.7-1.3.7s-.4,0-.5-.1c-.5-.2-.8-.5-1.1-.9-.2-.4-.4-.8-.4-1.2,0-.7-.3-1.2-.6-1.5-.3-.3-.7-.5-1-.6,0,0-.1,0-.2,0-.7.2-1.5.5-2.2,1.1-.7.6-1.2,1.3-1.4,2,0,.2,0,.3,0,.5,0,.2,0,.3,0,.5,0,1.2.4,2.1,1.3,2.8.9.7,1.9,1,3.1,1,1.7,0,3.5-.6,5.4-1.8,1.9-1.2,3.8-2.8,5.8-4.9,2-2,4-4.3,5.9-6.8,2-2.5,3.9-5.1,5.7-7.7,1.8-2.7,3.6-5.2,5.2-7.6.9-1.3,1.9-2.8,3.1-4.3,1.2-1.5,2.5-3.1,3.9-4.6-2-.9-4.1-1.5-6.4-1.9-2.3-.4-4.7-.6-7.1-.6s-6.2.4-9.2,1.2c-3,.8-5.7,2-8.1,3.6-2.4,1.6-4.2,3.8-5.5,6.4-.8,1.7-1.3,3.4-1.3,4.9s.4,2.7,1.1,3.9h0c.7.3,1.4.5,2.2.5s.4,0,.5,0c.2,0,.3,0,.5,0-.1-.2-.2-.5-.2-.7,0-.5.2-.8.5-1,.3-.2.5-.3.7-.4.3,0,.5-.2.8-.3.3-.1.5-.3.6-.5.2-.3.3-.6.3-.9,0-.3,0-.5,0-.7.3.3.4.6.5,1,0,.4.1.8.1,1.3,0,1-.2,1.7-.7,2.2-.5.5-1,.7-1.5.7s-.8-.2-1.1-.5c-.4.2-.9.2-1.3.2s-.5,0-.8,0c-.3,0-.6-.1-.9-.1,1.4,1.7,3.5,2.5,6,2.5s2.5-.2,3.7-.6c0,0,0,0,0,0,0,0,0,0,0,0h.2c1.8-.7,3.3-1.7,4.6-3,1.2-1.3,2.2-2.7,2.9-4.3.7-1.6,1-3,1-4.4s-.3-2.5-1-3.4c-.7-.9-1.7-1.4-3.2-1.4h0c-.5,0-1,.3-1.4.9s-.7,1.5-.7,2.5c0,.5-.2,1.2-.7,2.1-.4.9-1,1.7-1.7,2.2-.6.4-1.1.6-1.5.6s-.8-.1-1.1-.4c0,0-.1-.2-.1-.2s.2-.2.7-.2c.4,0,.8-.4,1-.9.3-.6.4-1.1.3-1.6-.2-1.7.1-3.1.8-4.1.7-1,1.7-1.6,3.1-1.6h.4c.1,0,.3,0,.4,0,.4,0,.8,0,1.1.1.4,0,.7.2.9.2-.2-.2-.4-.4-.7-.7-.2-.3-.3-.6-.3-1.1s.2-.6.5-.8c.3-.2.7-.3,1-.3s.4,0,.5.1c.3.2.5.3.5.4,0,.2-.2.2-.6.1h-.1c-.3,0-.5.2-.5.5s.1.8.3,1.2c.2.5.4.8.6,1h0c.8.5,1.4,1.1,1.8,1.8.4.8.7,1.6.7,2.5.1-.2.2-.4.4-.6.2-.2.3-.4.5-.6-.2-.2-.3-.6-.3-1s.2-.9.5-1.5c.3-.5.9-1,1.5-1.3,1.2-.6,2.7-1,4.6-1s1.2,0,1.8.2c.5.1,1,.3,1.3.6.3.3.4.5.4.6,0,.2,0,.3,0,.3-.2,0-.3,0-.5,0-.2,0-.4,0-.6,0-.5,0-.8,0-1.1.2-.4.2-.7.5-.9.8-.2.3-.4.7-.7,1.2-.3.4-.8.9-1.5,1.3-.6.4-1.3.6-2.2.6s-1.2-.2-1.7-.5c-.8.6-1.2,1.3-1.4,2-.2,1.9-.9,3.8-2.1,5.7-1.3,1.9-3,3.5-5.1,4.7.3,0,.7,0,1.1.3.3-.3.6-.4,1-.4s1,.2,1.4.7c.5.4.7,1.1.7,2.1s0,.8-.2,1.3c-.1.5-.3.9-.6,1.2,0-.2,0-.4,0-.7,0-.3-.1-.6-.3-.9-.1-.2-.3-.4-.5-.5-.2-.1-.5-.2-.8-.3-.2,0-.5-.2-.7-.4-.3-.2-.4-.5-.4-.9s0-.5.2-.7c-.3-.1-.7-.2-1.1-.2h-.3c-.1,0-.2,0-.3,0-1.8.8-3.6,1.1-5.7,1.1s-1.7,0-2.5-.3-1.6-.4-2.3-.8c.3.5.5,1,.5,1.4s-.2.8-.7,1.1c-.5.2-.9.3-1.2.1-.2,0-.2-.1-.2-.2,0-.2.1-.2.4-.3.3-.1.5-.5.5-1s0-.7-.1-1.1c0-.4-.2-.6-.4-.8h0c-1-.9-1.9-1.9-2.5-3.1-.6-1.2-.9-2.5-.9-3.9s.4-3.4,1.3-5.1c.9-1.8,2.2-3.4,3.8-4.8-.2,0-.4,0-.6.1-.2,0-.5,0-.7,0-.5,0-.9,0-1.3-.3-.3-.2-.5-.4-.6-.7s-.2-.6-.2-.8c0-.5.1-.9.4-1.3.1-.1.2-.2.3-.2.1,0,.2.2.2.6s.2.6.7.9c.4.2.9.4,1.5.5.6,0,1,.1,1.3,0l.5-.2c2.5-1.7,5.4-2.9,8.8-3.8,3.4-.8,6.9-1.3,10.4-1.3s5.3.2,7.9.7c2.6.5,5,1.1,7.2,2,.9-.9,1.8-1.7,2.7-2.5.9-.8,1.8-1.6,2.7-2.3,1.3-1,2.5-1.6,3.8-2,1.3-.4,2.4-.5,3.5-.5s2,.2,2.7.5c.7.3,1.2.7,1.3,1.1l-.3.2c-.3-.3-.7-.6-1.3-.9-.6-.2-1.2-.3-2-.3s-1.9.2-3.1.6c-1.2.4-2.5,1.2-4,2.2-.6.5-1.3,1.1-2.1,1.9-.7.8-1.5,1.7-2.3,2.7,2.8,1.3,5,3,6.8,5,1.7,2.1,2.6,4.5,2.6,7.2s-.5,3.6-1.4,5.1c-.9,1.5-2.1,2.8-3.7,3.9-1.5,1.1-3.2,2-5,2.5-1.8.6-3.6.9-5.4.9s-1.1,0-1.7,0c-.6,0-1.1-.2-1.7-.3-1-.3-1.9-.6-2.7-1.1-.8-.5-1.5-.9-2-1.4-3.6,5.4-7.4,9.7-11.4,12.7-4,3.1-8.1,4.5-12.3,4.2ZM36.6,32.5c1.6,0,3.1-.2,4.5-.6,2.2-.7,3.9-1.7,5.2-2.9,1.3-1.3,2.3-2.7,2.9-4.1.6-1.5.9-2.8.9-4.1,0-2.4-.7-4.5-2.1-6.3-1.4-1.8-3.3-3.3-5.6-4.5-1.4,1.9-2.8,3.9-4.3,6.2-1.5,2.3-2.8,4.5-4.1,6.6-1.3,2.2-2.5,4.1-3.5,5.7-.2.3-.3.5-.5.8-.2.3-.4.6-.6.8.9.9,2,1.5,3.3,1.9,1.3.4,2.6.6,3.9.6Z"/>
        <path class="cls-1" d="M61.7,43.6c-.8,0-1.4-.3-2-.8-.6-.5-.9-1.3-.9-2.3s0-1,.3-1.7c-.5.6-1.2,1.3-1.9,2.1-.7.7-1.5,1.3-2.3,1.8-.8.5-1.7.7-2.5.7s-.9,0-1.2-.2c-.6-.2-1-.6-1.3-1.1-.2-.5-.4-1.1-.4-1.7,0-1.1.2-2.2.7-3.3.4-1.1.8-2,1.2-2.7,0,0,0,0-.2,0-.2,0-.3,0-.4-.2-.1-.1-.1-.3,0-.4.3-.3.7-.9,1.2-1.7.6-.8,1.2-1.7,1.9-2.6.7-1,1.3-1.8,1.9-2.7.6-.8,1-1.5,1.3-1.9.3,0,.8-.2,1.3-.4.6-.2,1.1-.3,1.6-.3s1,.2,1.3.5c-.4.6-1,1.5-1.8,2.6-.8,1.1-1.6,2.2-2.5,3.5-.9,1.3-1.7,2.6-2.5,3.9-.8,1.3-1.5,2.6-2,3.8-.5,1.2-.8,2.2-.8,3.1s.3,1,1,1c.8,0,1.7-.5,2.8-1.5,1.1-1,2.2-2.2,3.4-3.7,1.2-1.5,2.3-3,3.3-4.6,1.7-2.6,3.5-5.3,5.4-8.2.3,0,.7-.1,1.3-.3.6-.2,1.1-.3,1.6-.3s.9.2,1.1.5c-.3.4-.8,1.2-1.6,2.3-.8,1.1-1.7,2.5-2.7,3.9-1,1.5-2,3-2.9,4.5-.3.5-.6,1.1-1,1.7-.4.7-.7,1.3-1,1.8-.3.6-.6,1.1-.7,1.5,0,.4-.1.7-.1.9,0,.8.4,1.1,1.1,1.1s.9-.2,1.5-.5c.6-.3,1.2-.8,1.7-1.3.7-.7,1.5-1.5,2.2-2.5.7-1,1.6-2.4,2.6-4.1,0-.2.2-.2.5-.2s.3,0,.3.2c0,.1,0,.3,0,.4-.7,1.2-1.4,2.3-2.1,3.4-.7,1.1-1.5,2.1-2.4,3.2-.9,1-1.8,1.7-2.8,2.1-1,.5-1.9.7-2.7.7Z"/>
        <path class="cls-1" d="M76.2,43.5c-.8,0-1.4-.2-2-.7-.6-.5-.9-1.1-.9-1.9s.3-2,.8-3.1c.5-1.1,1.1-2.1,1.7-3,.6-.9,1-1.5,1.2-1.7.7-.9,1.3-1.9,1.9-2.8.6-1,.9-1.8.9-2.4s-.2-.9-.7-1.1c-.4-.2-.9-.3-1.3-.5-.5-.2-.8-.3-1-.3-.1.2-.4.6-.8,1.3-.4.7-.9,1.5-1.5,2.4-.6.9-1.1,1.8-1.6,2.6-.5.8-.9,1.5-1.1,1.9-.2.3-.4.4-.6.4s-.3,0-.3-.2c0-.2,0-.3,0-.5,1.1-1.8,2.2-3.5,3-5,.9-1.6,1.4-2.6,1.7-3-.4-.3-.7-.7-.9-1.4-.2-.6-.3-1.3-.3-2s.2-1.4.5-2.1.8-.9,1.5-.9.8.2,1,.7c.2.5.3,1,.3,1.6s0,1-.2,1.5c-.1.5-.2.8-.3,1l-.4.9c.5,0,1.1.1,2.1.2.9.1,1.9.2,2.9.4.6,0,1,.3,1.4.6.4.3.5.8.5,1.4s-.2,1.3-.6,2.1c-.4.8-1,1.7-1.9,2.7-.5.5-1,1.2-1.7,2.1-.6.9-1.3,1.7-1.8,2.5-.6.8-1,1.5-1.3,1.9-.5.8-.7,1.5-.7,2.2s.4,1.1,1.2,1.1,1.8-.3,2.8-1c1-.7,2-1.5,2.9-2.5,1-1,1.8-2,2.5-2.9.7-1,1.3-1.7,1.6-2.3.2-.3.4-.4.6-.4s.3,0,.3.3,0,.3-.1.5c-.4.6-1,1.4-1.9,2.6-.9,1.1-1.9,2.3-3.1,3.5-1.2,1.2-2.5,2.1-3.9,2.7-.5.2-.9.3-1.4.4-.5,0-.8.1-1.1.1Z"/>
        <path class="cls-1" d="M62.7,65.2c-1.5,0-2.7-.4-3.5-1.2-.8-.8-1.2-1.7-1.2-2.8s.1-1.1.4-1.5c.1-.2.2-.2.4-.2s.4,0,.5.2c.1.1.2.3,0,.4-.1.3-.2.7-.2,1.1,0,.6.3,1.2.8,1.7.5.5,1.3.8,2.2.8s1.7-.3,2.8-.9c1.1-.6,2.1-1.4,3.3-2.4,1.1-1,2.2-2,3.3-3.1,1-1.1,2-2.1,2.8-3.1.8-1,1.4-1.7,1.9-2.3,1.6-2.1,3-4.1,4.4-6.2,1.4-2.1,2.6-4,3.7-5.9,1.1-1.9,2.1-3.4,2.8-4.8l.4-.7s0,0-.1,0c0,0,0,0-.2,0-.2,0-.3,0-.4-.1,0,0-.1-.2,0-.2.3-.4.9-1.3,1.7-2.5s1.6-2.6,2.3-4c.3-.6.6-1.3,1-2.3.4-.9.6-1.8.6-2.6s0-.7-.2-1.1c-.1-.4-.3-.6-.6-.7-.3-.2-.5-.3-.5-.5,0-.3.2-.5.7-.5s.8.2,1.1.7c.2.4.4.9.5,1.3,0,.5.1,1,.1,1.5,0,1.4-.3,2.7-.8,4.1-.5,1.4-1,2.5-1.5,3.3.8-.9,1.6-1.8,2.5-2.7.9-.9,1.8-1.6,2.8-2.3,1-.6,2-.9,2.9-.9s1.9.3,2.5,1c.6.7.9,1.6.9,2.7s-.2,2.2-.6,3.3c-.4,1.2-.8,2.1-1.3,2.7-1.3,2-2.7,3.6-4.3,4.8-1.6,1.2-3,2-4.4,2.6-.2,0-.2.2-.2.3s.1.1.4.1c.4,0,1,0,2-.2.9-.1,2-.4,3.3-.9,1.3-.5,2.6-1.3,4-2.5,1.4-1.2,2.8-2.9,4.2-5.1.1-.2.2-.3.3-.3,0,0,.2,0,.2,0,.1,0,.2,0,.3.2,0,.1,0,.3,0,.5-1.6,2.5-3.3,4.5-5,5.9-1.8,1.4-3.6,2.4-5.5,2.9-1.9.5-4,.8-6.2.8s-1.9-.2-2.8-.5c-.9-.3-1.4-1-1.5-1.9-.8,1.5-1.6,3.2-2.6,5.2-1,1.9-2,3.8-3.2,5.8-1.2,1.9-2.5,3.7-4,5.5-1.8,2.1-3.9,3.8-6.2,5.3-2.3,1.5-4.7,2.2-7.1,2.2ZM88.4,42.2c.8,0,1.7-.4,2.8-1.1,1.1-.8,2.2-1.7,3.3-2.9,1.1-1.2,2.1-2.5,3.1-3.8.9-1.4,1.7-2.7,2.3-3.9s.9-2.3.9-3.1-.4-1.4-1.1-1.4-1.3.2-2.2.7c-.9.5-1.7,1.2-2.6,2-.9.8-1.7,1.7-2.5,2.7-.8,1-1.5,1.9-2,2.8-.1.2-.4.8-.9,1.6-.5.9-.9,1.8-1.4,2.8-.4,1-.7,1.9-.7,2.6s.4,1.1,1.2,1.1Z"/>
        <path class="cls-1" d="M109.1,43.5c-.2,0-.3,0-.5,0-.2,0-.4,0-.6,0-1.1-.3-1.9-.8-2.4-1.5-.5-.7-.7-1.6-.7-2.7s.1-1.7.4-2.7c.2-1,.6-2,.9-3.1.6-1.7,1.5-3.5,2.4-5.6,1-2,2.1-4.1,3.3-6.3,1.2-2.2,2.6-4.2,3.9-6.3,1.4-2,2.8-3.9,4.3-5.5.9-1,1.8-1.9,2.7-2.7.9-.8,1.8-1.4,2.7-1.9,1.5-.9,2.9-1.4,4.1-1.4s1.4.2,1.8.5c.4.4.7.9.7,1.7s-.1,1.1-.3,1.7c-.2.6-.6,1.3-1.1,2.1-1,1.6-2.2,3.3-3.7,5-1.5,1.8-3.1,3.5-4.9,5.1-1.8,1.7-3.5,3.2-5.3,4.6s-3.4,2.5-5,3.4c-.8,1.4-1.5,2.8-2.2,4.4-.7,1.5-1.2,3-1.7,4.4-.4,1.4-.6,2.6-.6,3.6s.2,1.4.5,1.8c.3.5.8.7,1.4.7s1.8-.4,2.9-1.1c1.1-.8,2.3-1.8,3.5-3.1,1.2-1.3,2.3-2.9,3.4-4.6.2-.2.4-.3.6-.3s.2,0,.3.2c0,.2,0,.3,0,.5-1.9,2.9-3.7,5.1-5.5,6.8s-3.6,2.5-5.4,2.5ZM112.3,26.8c1.2-.7,2.6-1.7,4.3-3.1,1.6-1.4,3.3-3,5-4.7,1.7-1.7,3.2-3.5,4.7-5.2,1.4-1.7,2.5-3.2,3.3-4.5.4-.7.7-1.3.9-1.8.2-.5.3-.9.3-1.3,0-.7-.3-1-.9-1s-1.9.6-3.2,1.7c-1,.8-1.9,1.7-2.7,2.7-.8,1-1.4,1.7-1.8,2.1-1.8,2.3-3.5,4.9-5.1,7.6-1.6,2.7-3.2,5.3-4.8,7.6Z"/>
        <path class="cls-1" d="M123,43.5c-1,0-1.9-.2-2.8-.7-.9-.5-1.5-1.2-1.9-2.3-.3-.7-.4-1.5-.4-2.3s.2-2.1.6-3.1c.5-1.3,1.3-2.5,2.3-3.7,1-1.2,2.2-2.3,3.4-3.3,1.3-1,2.5-1.8,3.8-2.4,1.3-.6,2.4-.9,3.4-.9s1.5.2,2,.7c.3.3.5.8.5,1.5s-.3,1.8-.9,2.9c-.6,1.1-1.5,2-2.7,2.8-.7.5-1.6.9-2.5,1.2-1,.3-2,.5-3.1.5s-.7,0-1.1,0c-.4,0-.7,0-1.1-.2-.3.3-.6.8-.9,1.5-.4.7-.7,1.4-.9,2.2-.2.8-.4,1.6-.4,2.3,0,1,.3,1.7.8,2.1.5.4,1.1.6,1.9.6,1.4,0,2.9-.5,4.2-1.4,1.4-.9,2.6-2.1,3.7-3.5,1.1-1.4,2-2.7,2.8-3.9.1-.2.2-.2.3-.3,0,0,.1,0,.2,0,.1,0,.2,0,.3.2,0,.1.1.3,0,.5-.5.8-1.1,1.8-1.9,2.9-.8,1.1-1.7,2.2-2.7,3.2-1,1-2.2,1.8-3.5,2.5-.5.3-1,.5-1.6.6-.6.1-1.2.2-1.7.2ZM124.2,33.5c1.8,0,3.4-.5,4.9-1.4,1.5-.9,2.5-2.1,3.2-3.4.2-.3.3-.6.4-.9,0-.3,0-.5,0-.6,0-.6-.4-1-1.1-1s-1,.1-1.5.3c-.6.2-1,.5-1.5.8-.7.5-1.5,1.2-2.3,2-.8.8-1.5,1.5-2.1,2.3-.6.7-1.1,1.3-1.4,1.7.2,0,.4,0,.6,0,.2,0,.4,0,.6,0Z"/>
        <path class="cls-1" d="M147.4,54.6c-1.3,0-2.4-.5-3.5-1.3-1.1-.8-1.7-1.9-1.7-3.3s0-.4,0-.6c0-.2,0-.4,0-.6.2-1,.8-1.8,1.9-2.5,1-.7,2-1,3.1-1,.4-.6,1-1,1.7-1s1.2.3,1.6,1c.3,0,.6.1.7.1s.5,0,.7-.1c.2,0,.3-.2.4-.4,0-.3.2-.4.4-.4s.3,0,.3.2c0,.3,0,.6,0,1-.1.4-.5.6-1.2.7-.2,0-.5,0-.9-.2,0,.2,0,.3,0,.4v.9c0,.1,0,.3,0,.4v.2c0,.3.1.6.3.9.2.2.4.3.7.1.2,0,.3-.1.4-.1s.1,0,0,.3c-.3.5-.8.7-1.3.7s-1.1-.3-1.4-.8c-.3-.5-.5-1-.6-1.4,0-.7-.3-1.2-.6-1.5-.3-.3-.7-.5-1-.6h0c-.8,0-1.5.3-2.3.9-.8.7-1.3,1.4-1.5,2.3,0,.2,0,.3,0,.5,0,.2,0,.4,0,.5,0,1.2.4,2.1,1.3,2.7.9.6,1.9,1,3.1,1s3.1-.5,4.8-1.5c1.7-1,3.4-2.3,5.2-4.1,1.8-1.7,3.6-3.6,5.3-5.7-.6-.3-1.2-.8-1.8-1.4-.6-.5-1.2-1.1-1.7-1.7-.5-.6-1-1.1-1.4-1.7h0c-.6-.5-1.1-.8-1.5-1-.4-.2-.9-.3-1.3-.2,0,.1.1.2.1.4v.4c0,.6-.2,1.2-.7,1.7-.4.5-1,.7-1.7.7s-.5,0-.8,0c-.2,0-.5,0-.7,0-1.3,0-2.2.3-2.9.8s-1.1.9-1.4,1.2c0-.1,0-.2,0-.3v-.3c0-.9.3-1.7.8-2.6.6-.9,1-1.5,1.3-1.8s.8-.6,1.5-.9c.8-.3,1.5-.5,2.2-.5s1.4.2,1.8.7c.5,0,.9,0,1.3,0,.4,0,.8.2,1.2.4-.5-1-.8-2.1-1-3.1-.2-1-.2-2-.2-3-2.4-.2-4.4-1.1-6-2.7-1.6-1.6-2.4-3.6-2.4-6s0-1.6.3-2.4c.2-.8.5-1.7.9-2.6.5-1,1.1-2,1.8-2.8.7-.8,1.4-1.6,2.2-2.3-.5.2-1,.3-1.5.3s-.4,0-.6,0c-.2,0-.4-.1-.6-.2-.3-.2-.5-.4-.6-.7-.1-.3-.2-.6-.2-.8,0-.5.1-.9.4-1.3.1-.1.2-.2.3-.2.1,0,.2.2.2.6s.2.6.7.9c.4.2.9.4,1.5.5.6,0,1,.1,1.3,0,.3-.2.5-.2.6-.2,2-1.4,4.2-2.4,6.6-3.1,2.4-.7,4.9-1.2,7.4-1.4,2.5-.2,4.8-.4,7-.4,3.6,0,6.7.3,9.3,1,2.6.7,4.6,1.6,6.1,2.7,1-.5,2-.9,2.9-1.1.9-.2,1.8-.3,2.6-.3s2,.2,2.7.5c.7.3,1.2.7,1.3,1.1l-.3.2c-.3-.3-.7-.6-1.3-.9-.6-.2-1.2-.3-2-.3s-1.5.1-2.3.3c-.9.2-1.8.6-2.8,1.2,1,.8,1.7,1.8,2.2,2.7.5,1,.7,2,.7,3s-.4,2.8-1.3,4.1c-.9,1.3-2.1,2.4-3.8,3.4-1.6,1-3.6,1.6-6,1.9,2.6.5,4.5,1.5,5.8,3.1,1.3,1.6,1.9,3.3,1.9,5.2s-.4,2.9-1.1,4.4c-.7,1.5-1.8,2.8-3.3,4-1.5,1.2-3.3,2.2-5.5,2.9-2.2.7-4.7,1.1-7.6,1.1h-.7c-.2,0-.5,0-.7,0-1.2,0-2.2.4-3,1,.2.3.2.6.2.8,0,.4-.1.7-.3,1.1-.2.3-.5.5-.9.5-1.1,0-2,.4-2.4,1-.5.6-.8,1.1-.8,1.4-.2-.3-.3-.8-.3-1.3s0-1,.3-1.5c.2-.5.3-.9.5-1.1.2-.3.4-.6.9-1,.4-.4.9-.6,1.5-.6s.7.1,1,.4h0c.2-.2.5-.4.7-.5.2-.1.5-.2.8-.3-1.5-.3-3-.8-4.4-1.4-2.9,3.4-6,6.1-9.1,7.9-3.1,1.9-6.4,2.7-9.6,2.5ZM156.4,29.6c.4-2,1.3-3.6,2.8-5,1.5-1.3,3.3-2,5.6-2s2.5.2,3.8.7c.6-.8,1-1.7,1.3-2.6.3-.9.4-1.7.4-2.6,0-1.5-.4-2.8-1.1-3.9-.8-1.1-1.8-1.8-3.1-1.9,0,0-.2.2-.5.4-.4.3-.9.6-1.4,1.1-.5.4-.8,1.2-.9,2.3,0,.5-.3,1.2-.7,2.2-.4,1-1,1.7-1.7,2.2-.5.3-1,.5-1.5.5s-.8-.1-1.1-.4c-.1-.1-.2-.2-.2-.2,0,0,0-.1.2-.1s.3,0,.5,0c.4,0,.8-.4,1.1-.9.3-.6.4-1.1.3-1.6-.1-1.7.2-3.1,1.1-4.2.8-1.1,1.8-1.6,3-1.7,1,0,2,0,2.9.3-.2-.2-.4-.4-.6-.7-.2-.3-.3-.6-.3-1s.2-.6.5-.8c.3-.2.7-.3,1-.3s.4,0,.5.1c.3.2.4.3.4.4s-.2.1-.7.1-.4.2-.4.6,0,.7.3,1.2c.2.5.4.8.6,1,.8.5,1.5,1.1,1.9,1.9s.7,1.7.8,2.7c.2-.3.3-.5.5-.7.2-.2.4-.5.6-.7-.2-.2-.3-.6-.3-1s.2-.9.5-1.5.9-1,1.5-1.3c1.2-.6,2.7-1,4.6-1s1.2,0,1.8.2c.5.1,1,.3,1.3.6.3.3.4.5.4.6,0,.2,0,.3,0,.3-.2,0-.3,0-.5,0-.2,0-.4,0-.6,0-.5,0-.8,0-1.1.2-.4.2-.7.5-.9.8-.2.3-.4.7-.7,1.2-.3.4-.8.9-1.5,1.3-.6.4-1.3.6-2.2.6s-1.2-.2-1.7-.5c-.6.5-1,.9-1.2,1.4-.2.5-.4,1-.4,1.6,0,.2-.1.2-.2.3-.2,1.4-.7,2.7-1.5,4l1.1.5c1.4.7,2.7,1.7,3.9,3l1.4-2.1c1-1.5,2.2-3.1,3.6-4.9,1.4-1.8,2.9-3.5,4.6-5.2,1.7-1.7,3.4-3.2,5.2-4.5h.1c-1.3-1.2-3.1-2.1-5.4-2.8-2.3-.7-5.1-1.1-8.4-1.1s-4.6.2-7,.5c-2.4.3-4.7.9-6.9,1.7-2.2.8-4.2,2-6,3.4-1.8,1.5-3.2,3.3-4.3,5.6-.8,1.7-1.3,3.4-1.3,4.9s.6,3.5,1.8,4.8c1.2,1.3,2.7,2,4.5,2.2ZM163.7,41.8c1.8-2.2,3.6-4.5,5.3-6.9,1.7-2.4,3.4-4.8,4.9-7.1-1.1-1.3-2.5-2.3-3.9-3-.4-.2-.7-.3-1.1-.5-.2.2-.3.4-.5.6-.2.2-.4.4-.5.6-.7.7-1.4,1.3-2.1,1.8-.7.5-1.4.9-2.1,1.3.5,0,1,.1,1.5.3.3-.3.6-.4,1-.4s1,.2,1.4.7c.5.4.7,1.1.7,2.1s0,.8-.2,1.3c-.1.5-.3.9-.6,1.2,0-.2,0-.4,0-.7,0-.3-.1-.6-.3-.9-.1-.2-.3-.4-.5-.5-.2-.1-.5-.2-.8-.3-.2,0-.5-.2-.7-.4-.3-.2-.4-.5-.4-.9s0-.5.2-.7c-.4-.1-.8-.2-1.3-.2s-.9,0-1.4.2c-1.1.5-2.2.8-3.4.9-.1.4-.2.8-.2,1.2,0,.4,0,.8,0,1.2,0,1.4.3,2.7.9,4.1.6,1.4,1.6,2.7,2.9,3.9.2.2.5.4.7.6.2.2.5.4.7.6ZM158.9,29.5c1.3-.2,2.6-.7,4-1.4,1.4-.7,2.8-1.8,4.2-3.1.2-.2.3-.3.4-.4.1-.1.3-.3.4-.4-.3,0-.6-.1-.9-.2-.3,0-.6,0-.9,0-1.7,0-3.2.5-4.5,1.6-1.3,1.1-2.2,2.4-2.7,4ZM173.6,45c2.4,0,4.6-.4,6.5-1.1,1.9-.7,3.4-1.7,4.7-2.9,1.3-1.2,2.2-2.6,2.8-4,.6-1.4.9-2.9.9-4.3s-.6-3.6-1.8-5c-1.2-1.4-3-2.2-5.5-2.3h-1.7c-.1,0-.2,0-.3,0-.1,0-.2,0-.4,0-.4.7-.9,1.4-1.3,2.1-.5.7-.9,1.4-1.3,2.1.7,1.3,1.1,2.6,1.3,4,0,0,0,0,0,0,.5.3,1,.5,1.8.5s.6,0,.9-.1c.3,0,.4-.3.5-.5.1-.3.3-.5.5-.5s.2,0,.3.3c0,.2.1.4.1.5,0,.3-.1.6-.3,1-.2.3-.6.5-1.3.5s-.9-.2-1.4-.5c-.5-.3-.8-.6-.9-.7h0c0,0,0,.7,0,.7,0,1.4-.4,2.7-1.3,3.9-.8,1.2-1.9,1.8-3.1,1.9v-.3c1.2-.3,2.1-1,2.7-2.1.6-1.1.8-2.2.8-3.4s-.3-2.9-1-4.3c-.5.9-1.1,1.8-1.6,2.6-.5.8-1,1.6-1.5,2.3-1,1.5-1.9,3-2.9,4.3-1,1.3-2,2.6-2.9,3.8,2.3,1,4.6,1.5,6.9,1.5ZM179.2,24.7c2.9-.2,5.3-.7,7.2-1.6,1.9-.9,3.4-2,4.3-3.3,1-1.3,1.5-2.7,1.5-4.1s-.7-3.3-2.1-4.8l-.3.2c-1,.7-2.1,1.8-3.3,3.2-1.2,1.4-2.4,3-3.6,4.8-1.2,1.8-2.4,3.6-3.7,5.5Z"/>
        <path class="cls-1" d="M204.9,43.6c-.8,0-1.4-.3-2-.8s-.9-1.3-.9-2.3,0-1,.3-1.7c-.5.6-1.2,1.3-1.9,2.1-.7.7-1.5,1.3-2.3,1.8-.8.5-1.7.7-2.5.7s-.9,0-1.2-.2c-.6-.2-1-.6-1.3-1.1s-.4-1.1-.4-1.7c0-1.1.2-2.2.7-3.3.4-1.1.8-2,1.2-2.7,0,0,0,0-.2,0-.2,0-.3,0-.4-.2-.1-.1-.1-.3,0-.4.3-.3.7-.9,1.2-1.7.6-.8,1.2-1.7,1.9-2.6.7-1,1.3-1.8,1.9-2.7.6-.8,1-1.5,1.3-1.9.3,0,.8-.2,1.3-.4.6-.2,1.1-.3,1.6-.3s1,.2,1.3.5c-.4.6-1,1.5-1.8,2.6-.8,1.1-1.6,2.2-2.5,3.5-.9,1.3-1.7,2.6-2.5,3.9-.8,1.3-1.5,2.6-2,3.8-.5,1.2-.8,2.2-.8,3.1s.3,1,1,1c.8,0,1.7-.5,2.8-1.5s2.2-2.2,3.4-3.7c1.2-1.5,2.3-3,3.3-4.6,1.7-2.6,3.5-5.3,5.4-8.2.3,0,.7-.1,1.3-.3.6-.2,1.1-.3,1.6-.3s.9.2,1.1.5c-.3.4-.8,1.2-1.6,2.3-.8,1.1-1.7,2.5-2.7,3.9s-2,3-2.9,4.5c-.3.5-.6,1.1-1,1.7-.4.7-.7,1.3-1,1.8-.3.6-.6,1.1-.7,1.5,0,.4-.1.7-.1.9,0,.8.4,1.1,1.1,1.1s.9-.2,1.5-.5c.6-.3,1.2-.8,1.7-1.3.7-.7,1.5-1.5,2.2-2.5.7-1,1.6-2.4,2.6-4.1,0-.2.2-.2.5-.2s.3,0,.3.2c0,.1,0,.3,0,.4-.7,1.2-1.4,2.3-2.1,3.4s-1.5,2.1-2.4,3.2c-.9,1-1.8,1.7-2.8,2.1-1,.5-1.9.7-2.7.7Z"/>
        <path class="cls-1" d="M216.2,43.4c-1.1,0-2.1-.3-2.9-.9-.9-.6-1.3-1.6-1.3-2.8s0-1.2.1-1.7c0-.5.3-1.1.5-1.7.3-.6.7-1.3,1.3-2.3.6-.9,1.4-2.1,2.4-3.5l4.2-5.9h-3.1l.5-.9h3.3l4.6-6.6c.8-.6,1.8-.9,3-.9s1.1,0,1.7.3l-5.4,7.2h4.1l-.5.9h-4.2l-4.7,6.6c-.2.3-.6.8-1.1,1.6-.5.7-1.1,1.6-1.7,2.5-.6,1-1.1,1.9-1.5,2.8-.4.9-.6,1.8-.6,2.5,0,1.3.6,1.9,1.8,1.9s1.4-.2,2.2-.6c1.8-.8,3.3-1.9,4.5-3.3s2.4-3,3.6-4.8c.1-.2.3-.2.5-.2s.2,0,.3.2c0,.1,0,.2,0,.4-.7,1.1-1.5,2.2-2.3,3.3-.8,1.1-1.8,2.2-2.8,3.1-1,1-2.2,1.7-3.5,2.2-.8.3-1.8.5-2.7.5Z"/>
        <path class="cls-1" d="M228.9,43.4c-1.1,0-2.1-.3-2.9-.9-.9-.6-1.3-1.6-1.3-2.8s0-1.2.1-1.7c0-.5.3-1.1.5-1.7.3-.6.7-1.3,1.3-2.3.6-.9,1.4-2.1,2.4-3.5l4.2-5.9h-3.1l.5-.9h3.3l4.6-6.6c.8-.6,1.8-.9,3-.9s1.1,0,1.7.3l-5.4,7.2h4.1l-.5.9h-4.2l-4.7,6.6c-.2.3-.6.8-1.1,1.6-.5.7-1.1,1.6-1.7,2.5-.6,1-1.1,1.9-1.5,2.8-.4.9-.6,1.8-.6,2.5,0,1.3.6,1.9,1.8,1.9s1.4-.2,2.2-.6c1.8-.8,3.3-1.9,4.5-3.3s2.4-3,3.6-4.8c.1-.2.3-.2.5-.2s.2,0,.3.2c0,.1,0,.2,0,.4-.7,1.1-1.5,2.2-2.3,3.3-.8,1.1-1.8,2.2-2.8,3.1-1,1-2.2,1.7-3.5,2.2-.8.3-1.8.5-2.7.5Z"/>
        <path class="cls-1" d="M243.5,43.5c-1,0-1.9-.2-2.8-.7-.9-.5-1.5-1.2-1.9-2.3-.3-.7-.4-1.5-.4-2.3s.2-2.1.6-3.1c.5-1.3,1.3-2.5,2.3-3.7,1-1.2,2.2-2.3,3.4-3.3,1.3-1,2.5-1.8,3.8-2.4,1.3-.6,2.4-.9,3.4-.9s1.5.2,2,.7c.3.3.5.8.5,1.5s-.3,1.8-.9,2.9-1.5,2-2.7,2.8c-.7.5-1.6.9-2.5,1.2-1,.3-2,.5-3.1.5s-.7,0-1.1,0c-.4,0-.7,0-1.1-.2-.3.3-.6.8-.9,1.5-.4.7-.7,1.4-.9,2.2-.2.8-.4,1.6-.4,2.3,0,1,.3,1.7.8,2.1.5.4,1.1.6,1.9.6,1.4,0,2.9-.5,4.2-1.4,1.4-.9,2.6-2.1,3.7-3.5,1.1-1.4,2-2.7,2.8-3.9.1-.2.2-.2.3-.3s.1,0,.2,0c.1,0,.2,0,.3.2s.1.3,0,.5c-.5.8-1.1,1.8-1.9,2.9-.8,1.1-1.7,2.2-2.7,3.2-1,1-2.2,1.8-3.5,2.5-.5.3-1,.5-1.6.6-.6.1-1.2.2-1.7.2ZM244.7,33.5c1.8,0,3.4-.5,4.9-1.4,1.5-.9,2.5-2.1,3.2-3.4.2-.3.3-.6.4-.9,0-.3,0-.5,0-.6,0-.6-.4-1-1.1-1s-1,.1-1.5.3c-.6.2-1,.5-1.5.8-.7.5-1.5,1.2-2.3,2-.8.8-1.5,1.5-2.1,2.3-.6.7-1.1,1.3-1.4,1.7.2,0,.4,0,.6,0,.2,0,.4,0,.6,0Z"/>
        <path class="cls-1" d="M259.5,43.5c-.8,0-1.4-.2-2-.7s-.9-1.1-.9-1.9.3-2,.8-3.1c.5-1.1,1.1-2.1,1.7-3,.6-.9,1-1.5,1.2-1.7.7-.9,1.3-1.9,1.9-2.8.6-1,.9-1.8.9-2.4s-.2-.9-.7-1.1c-.4-.2-.9-.3-1.3-.5-.5-.2-.8-.3-1-.3-.1.2-.4.6-.8,1.3-.4.7-.9,1.5-1.5,2.4-.6.9-1.1,1.8-1.6,2.6-.5.8-.9,1.5-1.1,1.9-.2.3-.4.4-.6.4s-.3,0-.3-.2c0-.2,0-.3,0-.5,1.1-1.8,2.2-3.5,3-5,.9-1.6,1.4-2.6,1.7-3-.4-.3-.7-.7-.9-1.4-.2-.6-.3-1.3-.3-2s.2-1.4.5-2.1c.3-.6.8-.9,1.5-.9s.8.2,1,.7c.2.5.3,1,.3,1.6s0,1-.2,1.5c-.1.5-.2.8-.3,1l-.4.9c.5,0,1.1.1,2.1.2s1.9.2,2.9.4c.6,0,1,.3,1.4.6.4.3.5.8.5,1.4s-.2,1.3-.6,2.1c-.4.8-1,1.7-1.9,2.7-.5.5-1,1.2-1.7,2.1-.6.9-1.3,1.7-1.8,2.5-.6.8-1,1.5-1.3,1.9-.5.8-.7,1.5-.7,2.2s.4,1.1,1.2,1.1,1.8-.3,2.8-1c1-.7,2-1.5,2.9-2.5,1-1,1.8-2,2.5-2.9.7-1,1.3-1.7,1.6-2.3.2-.3.4-.4.6-.4s.3,0,.3.3,0,.3-.1.5c-.4.6-1,1.4-1.9,2.6-.9,1.1-1.9,2.3-3.1,3.5-1.2,1.2-2.5,2.1-3.9,2.7-.5.2-.9.3-1.4.4-.5,0-.8.1-1.1.1Z"/>
        <path class="cls-1" d="M268.7,60.5c-.2,0-.3,0-.4,0-1.1-.2-1.9-.7-2.5-1.5-.6-.8-.9-1.7-1.1-2.8-.2-1-.3-2.1-.3-3,0-2.1.3-4.5.8-7,.5-2.5,1.2-5,2-7.5.8-2.5,1.6-4.7,2.3-6.7.7-1.8,1.5-3.8,2.5-5.9,1-2.1,2.1-4.3,3.3-6.4,1.2-2.1,2.5-4.1,3.9-5.9,1.4-1.8,3-3.3,4.6-4.5.6-.5,1.4-.9,2.1-1.3.8-.3,1.6-.5,2.4-.5s1.5.2,1.9.6c.5.4.7,1,.7,1.9,0,1.4-.5,3-1.5,4.8-1,1.8-2.2,3.6-3.7,5.5-1.5,1.9-3.2,3.8-4.9,5.6s-3.4,3.5-5,5c-1.6,1.5-2.9,2.7-3.9,3.7h0c-.5,1.4-1.1,3-1.8,4.8-.6,1.9-1.3,3.8-1.8,5.8-.6,2-1,4-1.4,5.9-.4,1.9-.6,3.5-.6,5s0,1,.1,1.7c0,.6.3,1.2.6,1.7.3.5.8.7,1.5.7s1.6-.3,2.3-1c.7-.7,1.3-1.5,1.8-2.5.5-1,.9-2,1.3-3,.3-1,.6-1.8.7-2.4.1-.5.2-1.1.3-1.7,0-.6.1-1.1.1-1.7,0-1-.1-2-.4-2.9-.3-1-.7-1.9-1.3-2.7-.5,0-1-.2-1.7-.3-.7-.2-1.1-.6-1.1-1.1s.3-.7.8-.7.9.2,1.3.6c.5.4.8.8,1,1.2h.5c1.4,0,2.8-.3,4-.9,1.2-.7,2.3-1.5,3.2-2.6.9-1.1,1.7-2.2,2.4-3.3.2-1.5.6-3.1,1.1-4.8.5-1.7,1-3.3,1.7-5,.7-1.6,1.4-3.1,2.1-4.4.4-.7.9-1.6,1.6-2.7.7-1.1,1.5-2.2,2.3-3.5.9-1.2,1.8-2.4,2.8-3.4,1-1.1,2-1.9,3-2.6,1-.7,2-1,2.9-1s1.3.4,1.3,1.2-.2,1.6-.5,2.5c-.3,1-.6,1.8-.9,2.4-1,2.4-2.2,4.8-3.7,7.2-1.5,2.4-3.2,4.7-5,6.8-1.8,2.2-3.7,4.1-5.6,5.9-.3.9-.5,1.9-.7,2.8-.2,1-.3,2-.3,2.9s.2,1.6.5,2.5c.3.8,1,1.3,2,1.3s1.8-.4,2.6-1.1c.9-.7,1.7-1.6,2.5-2.6.8-1,1.5-2.1,2.1-3.1.6-1,1-1.9,1.3-2.5h.1c0,0,.3,0,.3,0h0c-.4.9-.9,1.9-1.5,2.9-.6,1.1-1.3,2.1-2.1,3.2-.8,1.1-1.6,1.9-2.6,2.6s-1.9,1-2.9,1-2.1-.3-2.7-.9c-.6-.6-1.1-1.4-1.4-2.3-.3-.9-.4-1.9-.4-2.9v-.8c0-.3,0-.5,0-.8-1.1,1.7-2.4,3.2-4,4.5-1.6,1.3-3.5,1.9-5.6,1.8.5.8.9,1.8,1.2,2.9.2,1.1.4,2.2.4,3.1s0,1,0,1.5c0,.5-.1.9-.2,1.4-.3,1.5-.8,3.1-1.5,4.8s-1.7,3-3,3.9c-.3.2-.6.4-1,.6s-.8.3-1.2.3ZM272.6,33.4c1-.9,2.2-2.1,3.7-3.5,1.5-1.5,3.1-3.1,4.7-4.9,1.6-1.8,3.2-3.6,4.6-5.4,1.4-1.9,2.6-3.6,3.5-5.3.9-1.7,1.4-3.2,1.4-4.4s-.6-1.8-1.7-1.8-2.1.5-3.2,1.5c-1.1,1-2.2,2.3-3.3,3.9-1.1,1.6-2.2,3.4-3.2,5.3-1,1.9-1.9,3.8-2.8,5.8-.9,1.9-1.6,3.7-2.2,5.2-.6,1.6-1.1,2.8-1.5,3.7ZM287.2,32.9c1-.8,1.9-1.7,2.7-2.7s1.6-2,2.4-2.9c.5-.6,1.2-1.6,2-2.7.8-1.2,1.7-2.5,2.6-3.9.9-1.4,1.8-2.9,2.6-4.4.8-1.5,1.5-2.9,2-4.1.5-1.3.8-2.3.8-3.1s0-.4-.1-.7c0-.2-.3-.3-.5-.3-.5,0-1.1.4-1.8,1.2-.7.8-1.5,1.7-2.3,2.8-.8,1.1-1.5,2.1-2.1,3.1-.6,1-1.1,1.7-1.3,2-.5.8-1,1.7-1.4,2.5s-.8,1.6-1.2,2.5c-.8,1.8-1.6,3.5-2.3,5.4s-1.4,3.7-1.9,5.6Z"/>
        <path class="cls-1" d="M288.7,65.2c-1.1,0-1.9-.3-2.6-.8-.7-.6-1-1.3-1-2.3s0-1,.3-1.5c.2-.6.5-1.1.9-1.7.8-1.1,1.9-2.3,3.3-3.6,1.5-1.3,3-2.6,4.6-3.7,1.8-1.3,3.4-2.5,5.1-3.5,1.6-1,3-1.8,4.1-2.4,1.1-.6,1.8-.9,2-1,0,0,.3-.6.7-1.8s1-2.6,1.7-4.4c.7-1.8,1.5-3.5,2.4-5.3-.4.6-.9,1.3-1.4,2.1-.5.8-1,1.5-1.5,2.1-.5.6-.9,1.1-1.2,1.5-.5.6-1.2,1.3-1.9,2.1-.7.7-1.5,1.3-2.3,1.8-.8.5-1.7.7-2.5.7s-1.6-.3-2.1-.8-.7-1.3-.7-2.2.2-2.2.7-3.3c.4-1.1.8-2,1.2-2.7,0,0,0,0-.2,0-.2,0-.3,0-.4-.2-.1-.2-.1-.3,0-.4.3-.5.8-1.1,1.4-1.9.6-.8,1.3-1.6,1.9-2.5.7-.9,1.3-1.8,1.9-2.6.6-.8,1.1-1.5,1.4-2,.3,0,.7-.2,1.2-.3.5-.2,1-.2,1.5-.2s.9.2,1.2.5c-.4.6-1,1.5-1.8,2.6-.8,1.1-1.6,2.2-2.5,3.5s-1.7,2.6-2.5,3.9c-.8,1.3-1.5,2.6-2,3.8-.5,1.2-.8,2.2-.8,3.1s.3,1,1,1c.8,0,1.7-.5,2.8-1.5,1.1-1,2.2-2.2,3.4-3.7,1.2-1.5,2.3-3,3.3-4.6,1.3-2,2.5-3.5,3.4-4.7,1-1.1,1.6-1.9,2-2.3.4-.4.7-.8,1.1-1.2.3-.4.7-.7,1-.9.5-.4,1.1-.6,1.6-.6s.8.1,1.1.3c.3.2.4.4.4.7s-.2.5-.6.7c-1.2.6-2.3,1.3-3.3,2-1,.7-1.9,1.7-2.7,2.7-.8,1.1-1.6,2.5-2.1,4.3-.6,1.7-1.1,3.5-1.5,5.2s-.8,3.1-1.1,4.3c.6-.4,1.5-1,2.5-2,1.1-.9,2.2-2.1,3.4-3.4,1.2-1.3,2.2-2.7,3-4.1.2-.2.3-.3.5-.3s.2,0,.3.1c0,0,.1.2,0,.3-1.1,1.9-2.3,3.6-3.7,5.1s-2.7,2.8-3.8,3.7c-1.2,1-2,1.5-2.6,1.8-.8,2.3-1.9,4.7-3.2,7.3-1.3,2.6-3,5-5.1,7.3-.9,1-2,2-3.3,2.9-1.3.9-2.7,1.7-4.1,2.3-1.4.6-2.8.9-4.1.9ZM288.4,64.3c.9,0,1.9-.4,3.1-1.3,1.2-.9,2.5-2,3.8-3.4,1.3-1.4,2.6-2.9,3.9-4.6,1.3-1.6,2.4-3.2,3.4-4.8,1-1.6,1.8-2.9,2.5-4.1-.5.3-1.4.7-2.5,1.4-1.1.7-2.4,1.5-3.8,2.4-1.4.9-2.8,2-4.3,3.1-1.4,1.1-2.8,2.2-4,3.3-1.2,1.1-2.2,2.2-3,3.2-.7,1-1.1,2-1.1,2.8s.2,1.1.5,1.5c.3.4.8.5,1.4.5Z"/>
      </g>
    </g>
  </g>
</svg>